<mxfile host="app.diagrams.net" modified="2023-12-10T09:45:55.681Z" agent="Mozilla/5.0 (Windows NT 10.0; Win64; x64) AppleWebKit/537.36 (KHTML, like Gecko) Chrome/120.0.0.0 Safari/537.36" etag="zFoBpiAcBqIDx4BEFu47" version="22.1.7" type="device">
  <diagram name="Page-1" id="x0-Ac5cWa6MDSXw8RwkN">
    <mxGraphModel dx="1461" dy="660" grid="1" gridSize="10" guides="1" tooltips="1" connect="1" arrows="1" fold="1" page="1" pageScale="1" pageWidth="5000" pageHeight="3000" math="0" shadow="0">
      <root>
        <mxCell id="0" />
        <mxCell id="1" parent="0" />
        <mxCell id="PfjKBhqE9NqhbrHUU-uY-11" value="" style="edgeStyle=orthogonalEdgeStyle;rounded=0;orthogonalLoop=1;jettySize=auto;html=1;" edge="1" parent="1" source="PfjKBhqE9NqhbrHUU-uY-1" target="PfjKBhqE9NqhbrHUU-uY-2">
          <mxGeometry relative="1" as="geometry" />
        </mxCell>
        <mxCell id="PfjKBhqE9NqhbrHUU-uY-1" value="&lt;font face=&quot;Lucida Console&quot;&gt;Real Time Data Ingestion&lt;/font&gt;" style="rounded=0;whiteSpace=wrap;html=1;" vertex="1" parent="1">
          <mxGeometry x="200" y="80" width="190" height="270" as="geometry" />
        </mxCell>
        <mxCell id="PfjKBhqE9NqhbrHUU-uY-10" value="" style="edgeStyle=orthogonalEdgeStyle;rounded=0;orthogonalLoop=1;jettySize=auto;html=1;" edge="1" parent="1" source="PfjKBhqE9NqhbrHUU-uY-2" target="PfjKBhqE9NqhbrHUU-uY-5">
          <mxGeometry relative="1" as="geometry">
            <Array as="points">
              <mxPoint x="530" y="380" />
              <mxPoint x="530" y="380" />
            </Array>
          </mxGeometry>
        </mxCell>
        <mxCell id="PfjKBhqE9NqhbrHUU-uY-12" value="" style="edgeStyle=orthogonalEdgeStyle;rounded=0;orthogonalLoop=1;jettySize=auto;html=1;" edge="1" parent="1" source="PfjKBhqE9NqhbrHUU-uY-2" target="PfjKBhqE9NqhbrHUU-uY-3">
          <mxGeometry relative="1" as="geometry" />
        </mxCell>
        <mxCell id="PfjKBhqE9NqhbrHUU-uY-2" value="&lt;font face=&quot;Lucida Console&quot;&gt;Real Time Data Processing&lt;/font&gt;" style="rounded=0;whiteSpace=wrap;html=1;" vertex="1" parent="1">
          <mxGeometry x="470" y="80" width="190" height="270" as="geometry" />
        </mxCell>
        <mxCell id="PfjKBhqE9NqhbrHUU-uY-13" value="" style="edgeStyle=orthogonalEdgeStyle;rounded=0;orthogonalLoop=1;jettySize=auto;html=1;" edge="1" parent="1" source="PfjKBhqE9NqhbrHUU-uY-3" target="PfjKBhqE9NqhbrHUU-uY-4">
          <mxGeometry relative="1" as="geometry" />
        </mxCell>
        <mxCell id="PfjKBhqE9NqhbrHUU-uY-3" value="&lt;font face=&quot;Lucida Console&quot;&gt;Fast API App&lt;/font&gt;" style="rounded=0;whiteSpace=wrap;html=1;" vertex="1" parent="1">
          <mxGeometry x="730" y="80" width="190" height="270" as="geometry" />
        </mxCell>
        <mxCell id="PfjKBhqE9NqhbrHUU-uY-4" value="&lt;font face=&quot;Lucida Console&quot;&gt;End Application&lt;/font&gt;" style="rounded=0;whiteSpace=wrap;html=1;" vertex="1" parent="1">
          <mxGeometry x="990" y="80" width="190" height="270" as="geometry" />
        </mxCell>
        <mxCell id="PfjKBhqE9NqhbrHUU-uY-9" value="" style="edgeStyle=orthogonalEdgeStyle;rounded=0;orthogonalLoop=1;jettySize=auto;html=1;" edge="1" parent="1" source="PfjKBhqE9NqhbrHUU-uY-5" target="PfjKBhqE9NqhbrHUU-uY-2">
          <mxGeometry relative="1" as="geometry">
            <Array as="points">
              <mxPoint x="590" y="390" />
              <mxPoint x="590" y="390" />
            </Array>
          </mxGeometry>
        </mxCell>
        <mxCell id="PfjKBhqE9NqhbrHUU-uY-5" value="&lt;font face=&quot;Lucida Console&quot;&gt;Machine Learning Engine&lt;/font&gt;" style="rounded=0;whiteSpace=wrap;html=1;" vertex="1" parent="1">
          <mxGeometry x="470" y="430" width="190" height="170" as="geometry" />
        </mxCell>
        <mxCell id="PfjKBhqE9NqhbrHUU-uY-16" value="" style="edgeStyle=orthogonalEdgeStyle;rounded=0;orthogonalLoop=1;jettySize=auto;html=1;" edge="1" parent="1" source="PfjKBhqE9NqhbrHUU-uY-15" target="PfjKBhqE9NqhbrHUU-uY-1">
          <mxGeometry relative="1" as="geometry" />
        </mxCell>
        <mxCell id="PfjKBhqE9NqhbrHUU-uY-15" value="&lt;font face=&quot;Lucida Console&quot;&gt;GBFS Data&lt;/font&gt;" style="text;html=1;strokeColor=none;fillColor=none;align=center;verticalAlign=middle;whiteSpace=wrap;rounded=0;" vertex="1" parent="1">
          <mxGeometry x="40" y="200" width="90" height="30" as="geometry" />
        </mxCell>
      </root>
    </mxGraphModel>
  </diagram>
</mxfile>
